<svg xmlns="http://www.w3.org/2000/svg" viewBox="0 0 228 228" width="228" height="228">
  <path fill="#333333" d="m 105.00082,13.183116 -68.568431,115.678734 99.518471,0.14004 c 10.18268,0.19811 12.761,0.7044 16.68116,1.88361 4.89401,1.47215 10.34419,4.21312 14.29473,7.01817 15.06735,10.70045 21.69784,36.263 16.73438,54.03339 -1.2522,4.48298 -4.81885,11.25283 -7.97677,15.13706 -7.93432,9.75824 -20.61839,16.21492 -33.0724,16.8367 l -2.16111,0.10955 -0.0992,-38.00388 -0.0987,-38.00284 -51.373611,0.0951 -48.37844,0.0894 c 0,0 -2.80416,0.0822 -3.18689,0.1204 -0.39661,0.0396 -0.82851,0.11247 -1.17822,0.16382 -12.97839,1.91402 -22.68665,13.34199 -22.69577,26.88878 0.009,13.76682 10.03768,25.35329 23.34844,26.97614 v -0.007 c 2.30642,0.3539 6.75709,0.3986 23.50761,0.5395 l 22.78983,0.19224 0.8356,0.0522 c 5.05859,0.79335 8.3504,5.30255 8.3504,10.42314 0,5.74279 -4.65454,10.39781 -10.3973,10.39781 -1.09936,-0.004 -1.41965,-0.007 -2.74505,-0.0212 l -62.12438,0.0367 h -0.51936 L 7.1437388,241.1263 H 38.936119 c 3.41424,0 6.55307,0.007 11.14454,0.007 5.17322,0 9.40883,-0.001 13.19971,-0.007 h 9.77769 c 4.28388,-0.20738 9.00595,-0.22017 13.07518,-0.82062 v 0.0114 c 0.20292,-0.0293 0.4055,-0.061 0.60771,-0.0951 0.0526,-0.009 0.10678,-0.0159 0.15916,-0.0248 11.89927,-1.82011 21.106681,-11.65313 22.413101,-23.93601 0.0168,-0.13966 0.0263,-0.28017 0.0408,-0.42012 0.0277,-0.26473 0.0517,-0.52986 0.0718,-0.79531 0.21921,-3.00025 -0.0766,-6.05247 -0.93741,-9.0382 -2.90808,-10.63314 -11.791001,-18.40233 -22.475111,-19.6572 -9.3352,-0.19268 -15.84153,-0.27085 -22.99498,-0.28991 -13.85547,-0.0368 -19.05245,-0.0642 -21.46639,-0.2744 -1.14846,-0.1002 -1.72453,-0.28898 -2.28358,-0.4346 -0.72058,-0.22349 -1.36895,-0.42056 -2.04226,-0.7338 -3.60201,-1.67539 -6.00709,-5.31504 -6.00997,-9.42062 0.0288,-4.71112 3.19669,-8.71866 7.57732,-9.94926 0.74178,-0.24763 1.48239,-0.3668 2.25051,-0.45475 h 0.79633 l 39.77328,-0.0935 40.569101,-0.0956 v 38.27725 38.27622 h 9.72499 c 21.17778,-0.009 47.83412,-2.41879 63.02458,-31.63373 2.82692,-5.03323 4.93084,-10.47077 6.22184,-16.15095 0.89275,-3.92781 1.39998,-8.06685 1.54874,-12.29796 0.0978,-1.5224 0.14896,-3.04856 0.15348,-4.57543 -0.0234,-25.46143 -12.82444,-47.71531 -31.54588,-57.44093 -8.86107,-4.05533 -15.10758,-6.50661 -27.81742,-6.79648 -12.70984,-0.28987 -23.82374,-0.16669 -43.18444,-0.29249 -0.550471,0 -1.163921,0.007 -1.693441,0.0103 l -13.29066,-0.0889 -18.59783,-0.0961 0.0729,-0.0326 h -0.0713 c 12.74871,-22.012865 38.086761,-65.533711 38.379111,-65.866769 0.0541,-0.06344 1.46763,2.293205 3.14193,5.233789 1.67467,2.940234 5.49525,9.599385 8.48992,14.79858 2.77837,4.823235 5.00113,8.760085 5.32009,9.412862 l 1.17408,2.038636 -18.13274,-0.02119 -3.05718,-0.0041 -1.53479,2.587439 c -1.295091,2.185074 -3.482001,5.920251 -4.859651,8.302852 l -2.50527,4.332553 c 19.810551,0 39.620951,-0.0042 59.431511,-0.0072 z" transform="translate(8.9869909,-13.183116)"/>
</svg>
